#!OML:ASF I:\golf\golf\golf 2\Subject 1\2002-09-07\Subject1.ASF
:FULLY-SPECIFIED
:DEGREES
379
root -10.4997 18.0407 4.43244 -154.173 75.7741 -173.129
lowerback 2.90783 1.6196 0.104685
upperback 4.82398 2.27238 4.94733
thorax 3.15174 1.1406 5.06913
lowerneck -13.4187 5.04275 4.60717
upperneck 34.5651 11.8494 -10.1558
head 15.3118 4.89813 -2.87609
rclavicle 2.62396e-014 6.04305e-014
rhumerus -15.5529 24.7236 -97.9321
rradius 48.1593
rwrist -50.6304
rhand -31.8609 -10.478
rfingers 7.12502
rthumb -5.11439 -40.3963
lclavicle 2.62396e-014 6.04305e-014
lhumerus -8.55512 -45.2282 105.754
lradius 42.6706
lwrist 48.9608
lhand -6.45141 63.3861
lfingers 7.12502
lthumb -160.602 87.5615
rfemur -26.0849 -9.35944 15.6981
rtibia 26.2957
rfoot -10.2977 -17.64
rtoes -3.36037
lfemur -33.1287 0.9588 -12.1289
ltibia 20.3483
lfoot -5.70147 -17.179
ltoes -6.32629
380
root -10.4988 18.0398 4.43501 -154.087 75.8088 -173.063
lowerback 2.8971 1.65155 0.108555
upperback 4.805 2.31387 4.9137
thorax 3.13564 1.16157 5.03088
lowerneck -13.4672 5.03498 4.55866
upperneck 34.6011 11.8335 -10.0906
head 15.3292 4.89045 -2.84233
rclavicle -1.11319e-014 -4.6118e-014
rhumerus -15.5768 24.7034 -97.9534
rradius 48.1978
rwrist -50.6085
rhand -31.9036 -10.597
rfingers 7.12502
rthumb -5.15566 -40.5143
lclavicle -1.11319e-014 -4.6118e-014
lhumerus -8.56888 -45.258 105.766
lradius 42.6311
lwrist 48.9435
lhand -6.60626 63.3794
lfingers 7.12502
lthumb -160.751 87.5533
rfemur -26.1191 -9.29527 15.7084
rtibia 26.3096
rfoot -10.3579 -17.6446
rtoes -3.12895
lfemur -33.1539 1.00992 -12.1222
ltibia 20.3585
lfoot -5.70904 -17.1704
ltoes -6.62736
381
root -10.5002 18.0404 4.43958 -153.903 75.7662 -172.878
lowerback 2.95543 1.65775 0.121474
upperback 4.76445 2.32443 4.914
thorax 3.06007 1.16834 5.01994
lowerneck -13.4451 5.05529 4.55052
upperneck 34.5533 11.8409 -10.0568
head 15.2976 4.89733 -2.8247
rclavicle 1.66979e-014 7.95139e-015
rhumerus -15.614 24.65 -97.9951
rradius 48.2028
rwrist -50.5276
rhand -32.0255 -10.6908
rfingers 7.12502
rthumb -5.27334 -40.6051
lclavicle 1.66979e-014 7.95139e-015
lhumerus -8.60034 -45.2273 105.797
lradius 42.5923
lwrist 48.9738
lhand -6.75631 63.4871
lfingers 7.12502
lthumb -160.895 87.4313
rfemur -26.128 -9.17453 15.7692
rtibia 26.3119
rfoot -10.4397 -17.7584
rtoes -2.82785
lfemur -33.1857 0.997315 -12.0293
ltibia 20.3659
lfoot -5.69943 -17.1685
ltoes -6.51673
382
root -10.4978 18.0421 4.44122 -153.786 75.7582 -172.758
lowerback 2.93975 1.63633 0.0976502
upperback 4.74912 2.29507 4.92307
thorax 3.05428 1.1527 5.04333
lowerneck -13.365 5.12178 4.53663
upperneck 34.457 11.9313 -10.0723
head 15.2429 4.93561 -2.81227
rclavicle 1.82882e-014 -1.59028e-015
rhumerus -15.6778 24.729 -98.0418
rradius 48.2647
rwrist -50.5765
rhand -32.1955 -10.6783
rfingers 7.12502
rthumb -5.43753 -40.5885
lclavicle 1.82882e-014 -1.59028e-015
lhumerus -8.58655 -45.1252 105.781
lradius 42.5842
lwrist 48.9747
lhand -6.77634 63.5826
lfingers 7.12502
lthumb -160.914 87.3338
rfemur -26.1022 -9.12532 15.799
rtibia 26.2809
rfoot -10.4804 -17.7756
rtoes -2.56233
lfemur -33.1894 0.984967 -11.9749
ltibia 20.4027
lfoot -5.70511 -17.1335
ltoes -6.0555
383
root -10.4913 18.043 4.43981 -153.61 75.757 -172.576
lowerback 2.84499 1.63041 0.129644
upperback 4.75397 2.28419 4.92263
thorax 3.11474 1.14727 5.02872
lowerneck -13.3352 5.1435 4.48179
upperneck 34.436 11.9642 -10.0392
head 15.2224 4.94796 -2.78294
rclavicle -8.74653e-015 -5.40694e-014
rhumerus -15.7296 24.769 -98.0897
rradius 48.3328
rwrist -50.7641
rhand -32.3474 -10.5625
rfingers 7.12502
rthumb -5.58413 -40.4689
lclavicle -8.74653e-015 -5.40694e-014
lhumerus -8.57452 -45.0788 105.79
lradius 42.5573
lwrist 48.9786
lhand -6.74506 63.6105
lfingers 7.12502
lthumb -160.884 87.309
rfemur -26.0542 -9.17292 15.8496
rtibia 26.2369
rfoot -10.3996 -17.7644
rtoes -3.02374
lfemur -33.174 0.976882 -11.9238
ltibia 20.4459
lfoot -5.6781 -17.093
ltoes -5.58353
384
root -10.4881 18.0414 4.44138 -153.379 75.6671 -172.279
lowerback 2.87109 1.59991 0.168087
upperback 4.75649 2.24649 4.98366
thorax 3.10525 1.13008 5.07059
lowerneck -13.3457 5.16578 4.40266
upperneck 34.4386 12.0243 -10.0395
head 15.2277 4.96339 -2.75769
rclavicle -2.06736e-014 -2.54444e-014
rhumerus -15.7216 24.8168 -98.0708
rradius 48.3118
rwrist -50.8506
rhand -32.3376 -10.4865
rfingers 7.12502
rthumb -5.57466 -40.3932
lclavicle -2.06736e-014 -2.54444e-014
lhumerus -8.56063 -44.9972 105.84
lradius 42.5265
lwrist 49.027
lhand -6.64806 63.5782
lfingers 7.12502
lthumb -160.791 87.3505
rfemur -25.941 -9.17818 15.9575
rtibia 26.184
rfoot -10.3166 -17.8612
rtoes -3.6069
lfemur -33.1439 0.992329 -11.8346
ltibia 20.4818
lfoot -5.7015 -17.1358
ltoes -5.83716
385
root -10.4868 18.0403 4.44384 -153.501 75.6152 -172.348
lowerback 2.91744 1.58821 0.131995
upperback 4.7602 2.23224 4.98491
thorax 3.083 1.12221 5.09085
lowerneck -13.3217 5.21128 4.48553
upperneck 34.3534 12.0875 -10.1354
head 15.2034 4.99079 -2.79983
rclavicle 3.97569e-015 8.42847e-014
rhumerus -15.7024 24.7952 -98.0503
rradius 48.2925
rwrist -50.8347
rhand -32.2017 -10.4423
rfingers 7.12502
rthumb -5.44349 -40.3524
lclavicle 3.97569e-015 8.42847e-014
lhumerus -8.56149 -45.0186 105.838
lradius 42.5436
lwrist 49.0401
lhand -6.4967 63.542
lfingers 7.12502
lthumb -160.645 87.4012
rfemur -25.8442 -9.12881 15.9439
rtibia 26.1407
rfoot -10.3659 -17.9401
rtoes -3.28773
lfemur -33.1249 0.99632 -11.8493
ltibia 20.5182
lfoot -5.74156 -17.1982
ltoes -6.38271
386
root -10.4839 18.04 4.44562 -153.651 75.5945 -172.488
lowerback 2.89049 1.60312 0.0971742
upperback 4.76554 2.24964 4.93391
thorax 3.10269 1.1294 5.05795
lowerneck -13.2519 5.24741 4.6781
upperneck 34.2071 12.0939 -10.2477
head 15.1414 5.00787 -2.87862
rclavicle -4.77083e-015 4.29375e-014
rhumerus -15.6896 24.6385 -98.0736
rradius 48.3002
rwrist -50.8057
rhand -32.0749 -10.4661
rfingers 7.12502
rthumb -5.32102 -40.3793
lclavicle -4.77083e-015 4.29375e-014
lhumerus -8.55479 -45.1531 105.786
lradius 42.5521
lwrist 49.0526
lhand -6.4098 63.4948
lfingers 7.12502
lthumb -160.562 87.4568
rfemur -25.8007 -9.02646 15.8909
rtibia 26.1374
rfoot -10.4506 -18.0251
rtoes -2.83379
lfemur -33.1197 0.944399 -11.8563
ltibia 20.531
lfoot -5.74385 -17.1947
ltoes -6.49701
387
root -10.483 18.039 4.44812 -153.669 75.4183 -172.507
lowerback 2.90725 1.56647 0.164005
upperback 4.73134 2.20216 4.91584
thorax 3.06455 1.10854 4.99953
lowerneck -13.2201 5.27741 4.79006
upperneck 34.172 12.1141 -10.2837
head 15.1306 5.02779 -2.90987
rclavicle -6.36111e-015 -3.97569e-014
rhumerus -15.6909 24.5073 -98.1021
rradius 48.2844
rwrist -50.8334
rhand -32.1092 -10.4389
rfingers 7.12502
rthumb -5.35419 -40.3513
lclavicle -6.36111e-015 -3.97569e-014
lhumerus -8.59027 -45.2842 105.762
lradius 42.5669
lwrist 49.0851
lhand -6.38596 63.5135
lfingers 7.12502
lthumb -160.539 87.4404
rfemur -25.7687 -8.95688 15.9332
rtibia 26.1628
rfoot -10.5012 -18.2319
rtoes -2.87895
lfemur -33.1528 0.81549 -11.7629
ltibia 20.5074
lfoot -5.70272 -17.2056
ltoes -6.20444
388
root -10.4826 18.039 4.44875 -153.877 75.1955 -172.743
lowerback 2.92046 1.49555 0.234869
upperback 4.67438 2.10888 4.89662
thorax 3.00859 1.06492 4.93741
lowerneck -13.2219 5.31008 4.84336
upperneck 34.2138 12.1799 -10.3235
head 15.1667 5.0584 -2.92459
rclavicle -1.82882e-014 2.8625e-014
rhumerus -15.7293 24.5184 -98.1327
rradius 48.2898
rwrist -50.9914
rhand -32.2863 -10.2367
rfingers 7.12502
rthumb -5.52512 -40.1446
lclavicle -1.82882e-014 2.8625e-014
lhumerus -8.6775 -45.3845 105.772
lradius 42.6274
lwrist 49.0131
lhand -6.30437 63.6054
lfingers 7.12502
lthumb -160.46 87.3565
rfemur -25.7556 -8.9832 15.939
rtibia 26.1877
rfoot -10.5643 -18.4073
rtoes -2.75468
lfemur -33.2102 0.666535 -11.7256
ltibia 20.4709
lfoot -5.60919 -17.2911
ltoes -5.7005
389
root -10.4797 18.0393 4.44711 -154.072 75.142 -172.935
lowerback 2.9062 1.4674 0.243945
upperback 4.66326 2.07035 4.86938
thorax 3.00936 1.04586 4.90406
lowerneck -13.226 5.34332 4.85977
upperneck 34.2279 12.2579 -10.3825
head 15.191 5.0872 -2.93799
rclavicle 2.38542e-015 -1.43125e-014
rhumerus -15.7414 24.524 -98.1382
rradius 48.3191
rwrist -51.0011
rhand -32.2773 -10.0021
rfingers 7.12502
rthumb -5.51651 -39.9103
lclavicle 2.38542e-015 -1.43125e-014
lhumerus -8.71652 -45.4051 105.779
lradius 42.6769
lwrist 48.9418
lhand -6.34436 63.675
lfingers 7.12502
lthumb -160.499 87.2829
rfemur -25.7224 -8.99468 15.8875
rtibia 26.208
rfoot -10.6305 -18.4302
rtoes -2.44903
lfemur -33.178 0.64073 -11.7711
ltibia 20.4384
lfoot -5.56642 -17.3498
ltoes -5.60838
390
root -10.4761 18.0401 4.44484 -154.285 75.189 -173.105
lowerback 2.90816 1.47926 0.21813
upperback 4.68333 2.08485 4.82512
thorax 3.02847 1.05209 4.87263
lowerneck -13.2571 5.3626 4.83429
upperneck 34.2399 12.285 -10.3525
head 15.2025 5.09714 -2.91521
rclavicle -1.74931e-014 5.40694e-014
rhumerus -15.7045 24.3955 -98.1299
rradius 48.3173
rwrist -50.7408
rhand -32.0298 -9.85493
rfingers 7.12502
rthumb -5.2775 -39.7692
lclavicle -1.74931e-014 5.40694e-014
lhumerus -8.69847 -45.4009 105.77
lradius 42.7026
lwrist 48.9911
lhand -6.51396 63.7463
lfingers 7.12502
lthumb -160.662 87.1953
rfemur -25.6697 -9.01219 15.8112
rtibia 26.2457
rfoot -10.6606 -18.3838
rtoes -2.48487
lfemur -33.071 0.660426 -11.8538
ltibia 20.3987
lfoot -5.61511 -17.2963
ltoes -5.89715
391
root -10.4746 18.041 4.446 -154.425 75.1959 -173.206
lowerback 2.93211 1.47638 0.163006
upperback 4.70199 2.08092 4.81664
thorax 3.03326 1.04835 4.89477
lowerneck -13.3329 5.39093 4.764
upperneck 34.2736 12.3242 -10.2815
head 15.2292 5.10848 -2.86425
rclavicle -5.56597e-015 -3.65764e-014
rhumerus -15.6725 24.3516 -98.1182
rradius 48.3069
rwrist -50.5664
rhand -31.8876 -9.88042
rfingers 7.12502
rthumb -5.14016 -39.7981
lclavicle -5.56597e-015 -3.65764e-014
lhumerus -8.61034 -45.3236 105.736
lradius 42.695
lwrist 49.0161
lhand -6.50329 63.8119
lfingers 7.12502
lthumb -160.652 87.1307
rfemur -25.6416 -8.98167 15.7709
rtibia 26.2958
rfoot -10.7111 -18.395
rtoes -2.44312
lfemur -33.0021 0.632623 -11.8685
ltibia 20.3674
lfoot -5.62053 -17.2442
ltoes -6.04306
392
root -10.4758 18.0392 4.44974 -154.552 75.1742 -173.321
lowerback 2.97873 1.49306 0.110661
upperback 4.68869 2.10368 4.79554
thorax 2.99023 1.05859 4.89991
lowerneck -13.3861 5.38674 4.74209
upperneck 34.3188 12.311 -10.2239
head 15.2546 5.10407 -2.83798
rclavicle -2.3059e-014 -2.54444e-014
rhumerus -15.6843 24.3157 -98.1134
rradius 48.3357
rwrist -50.5684
rhand -32.0356 -9.90174
rfingers 7.12502
rthumb -5.28314 -39.8159
lclavicle -2.3059e-014 -2.54444e-014
lhumerus -8.58597 -45.3379 105.737
lradius 42.673
lwrist 49.0138
lhand -6.463 63.8148
lfingers 7.12502
lthumb -160.613 87.1317
rfemur -25.6578 -8.90752 15.7438
rtibia 26.3472
rfoot -10.762 -18.4745
rtoes -2.21876
lfemur -33.001 0.583711 -11.8639
ltibia 20.36
lfoot -5.64816 -17.2343
ltoes -6.32751
